<?xml version="1.0" standalone="no"?>
<!DOCTYPE svg PUBLIC "-//W3C//DTD SVG 20010904//EN"
 "http://www.w3.org/TR/2001/REC-SVG-20010904/DTD/svg10.dtd">
<svg version="1.0" xmlns="http://www.w3.org/2000/svg"
 width="580.000000pt" height="580.000000pt" viewBox="0 0 580.000000 580.000000"
 preserveAspectRatio="xMidYMid meet">
<metadata>
Created by potrace 1.11, written by Peter Selinger 2001-2013
</metadata>
<g transform="translate(0.000000,580.000000) scale(0.100000,-0.100000)"
fill="#000000" stroke="none">
<path d="M2495 5674 c-185 -19 -256 -28 -360 -49 -278 -56 -567 -161 -797
-291 -118 -67 -268 -164 -268 -175 0 -5 189 -135 421 -290 l421 -280 88 35
c116 46 290 92 420 111 135 19 385 19 520 0 580 -83 1090 -441 1373 -965 96
-178 171 -412 198 -615 l12 -95 461 2 461 3 -3 65 c-13 299 -127 713 -281
1018 -243 482 -634 895 -1106 1167 -302 174 -652 292 -1010 340 -115 16 -466
28 -550 19z"/>
<path d="M340 5137 c0 -112 3 -427 7 -700 l6 -495 736 -515 c405 -284 739
-519 743 -523 4 -3 -328 -241 -737 -528 l-745 -521 0 -682 c0 -376 2 -683 5
-683 6 0 3553 2396 3568 2410 5 4 -775 537 -1733 1184 -957 647 -1751 1187
-1764 1199 -13 12 -38 30 -55 40 l-31 18 0 -204z"/>
<path d="M4515 2693 c-55 -524 -360 -1022 -816 -1328 -106 -72 -316 -174 -439
-214 -425 -138 -891 -119 -1300 52 l-35 14 -417 -281 c-229 -155 -417 -287
-418 -294 -1 -33 365 -236 570 -316 344 -134 644 -190 1020 -190 118 0 260 6
315 13 627 79 1172 337 1613 765 470 456 751 1027 826 1678 9 75 13 143 10
152 -6 14 -52 16 -464 16 l-458 0 -7 -67z"/>
</g>
</svg>
